<svg width="16" height="567" viewBox="0 0 16 567" fill="none" xmlns="http://www.w3.org/2000/svg">
<line x1="8" y1="566.033" x2="8" y2="15.0001" stroke="#00657C" stroke-width="4"/>
<path d="M8 59.5164C11.866 59.5164 15 62.6504 15 66.5164C15 70.3824 11.866 73.5164 8 73.5164C4.13401 73.5164 1 70.3824 1 66.5164C1.00002 62.6504 4.13402 59.5164 8 59.5164Z" fill="#00657C" stroke="#074C5C"/>
<path d="M8 160.5C11.866 160.5 15 163.634 15 167.5C15 171.366 11.866 174.5 8 174.5C4.13401 174.5 1 171.366 1 167.5C1 163.634 4.13401 160.5 8 160.5Z" fill="#00657C" stroke="#074C5C"/>
<path d="M8 261.516C11.866 261.516 15 264.65 15 268.516C15 272.382 11.866 275.516 8 275.516C4.13401 275.516 1 272.382 1 268.516C1.00002 264.65 4.13402 261.516 8 261.516Z" fill="#00657C" stroke="#074C5C"/>
<path d="M8 362.5C11.866 362.5 15 365.634 15 369.5C15 373.366 11.866 376.5 8 376.5C4.13401 376.5 1 373.366 1 369.5C1 365.634 4.13401 362.5 8 362.5Z" fill="#00657C" stroke="#074C5C"/>
<path d="M8 468.484C11.866 468.484 15 471.618 15 475.484C15 479.35 11.866 482.484 8 482.484C4.13402 482.484 1.00002 479.35 1 475.484C1 471.618 4.13401 468.484 8 468.484Z" fill="#00657C" stroke="#074C5C"/>
<ellipse opacity="0.4" cx="8" cy="24" rx="8" ry="11" fill="white"/>
<ellipse opacity="0.4" cx="8" cy="17" rx="8" ry="11" fill="white"/>
<ellipse opacity="0.4" cx="8" cy="11" rx="8" ry="11" fill="white"/>
</svg>
