<svg width="25" height="591" viewBox="0 0 25 591" fill="none" xmlns="http://www.w3.org/2000/svg">
<path d="M12 591L12 13.9997" stroke="#00657C" stroke-width="4"/>
<path d="M12 94.4589C18.3513 94.4589 23.5 99.6076 23.5 105.959C23.5 112.31 18.3513 117.459 12 117.459C5.64873 117.459 0.5 112.31 0.5 105.959C0.500035 99.6076 5.64875 94.4589 12 94.4589Z" fill="#00657C" stroke="#074C5C"/>
<path d="M12 193.5C18.3513 193.5 23.5 198.649 23.5 205C23.5 211.351 18.3513 216.5 12 216.5C5.64873 216.5 0.5 211.351 0.5 205C0.5 198.649 5.64873 193.5 12 193.5Z" fill="#00657C" stroke="#074C5C"/>
<path opacity="0.4" d="M21.9048 15.0002C21.9048 20.5231 17.0012 25.0002 10.9524 25.0002C4.90355 25.0002 0 20.5231 0 15.0002C0 9.4774 4.90355 5.00024 10.9524 5.00024C17.0012 5.00024 21.9048 9.4774 21.9048 15.0002Z" fill="white"/>
<path opacity="0.4" d="M21.9048 17.5001C21.9048 26.0605 17.0012 33.0001 10.9524 33.0001C4.90356 33.0001 1.14441e-05 26.0605 1.14441e-05 17.5001C1.14441e-05 8.93972 4.90356 2.00014 10.9524 2.00014C17.0012 2.00014 21.9048 8.93972 21.9048 17.5001Z" fill="white"/>
<ellipse opacity="0.4" cx="10.9524" cy="21.5" rx="10.9524" ry="21.5" fill="white"/>
<path d="M12.0798 296.531C18.4311 296.531 23.5798 301.68 23.5798 308.031C23.5798 314.383 18.4311 319.531 12.0798 319.531C5.72856 319.531 0.579834 314.383 0.579834 308.031C0.579834 301.68 5.72856 296.531 12.0798 296.531Z" fill="#00657C" stroke="#074C5C"/>
<path d="M12.1887 397.491C18.54 397.491 23.6887 402.639 23.6887 408.991C23.6887 415.342 18.54 420.491 12.1887 420.491C5.83745 420.491 0.688721 415.342 0.688721 408.991C0.68873 402.639 5.83745 397.491 12.1887 397.491Z" fill="#00657C" stroke="#074C5C"/>
<path d="M12 501.5C18.3513 501.5 23.5 506.649 23.5 513C23.5 519.351 18.3513 524.5 12 524.5C5.64873 524.5 0.500014 519.351 0.5 513C0.5 506.649 5.64873 501.5 12 501.5Z" fill="#00657C" stroke="#074C5C"/>
</svg>
