<svg width="457" height="338" viewBox="0 0 457 338" fill="none" xmlns="http://www.w3.org/2000/svg">
<ellipse opacity="0.5" cx="228.5" cy="169" rx="228.5" ry="169" transform="rotate(180 228.5 169)" fill="#EDE5BB" fill-opacity="0.8"/>
<ellipse cx="228.5" cy="169" rx="206.5" ry="143" transform="rotate(180 228.5 169)" fill="#EDE5BB" fill-opacity="0.8"/>
<ellipse cx="228.5" cy="169" rx="162.5" ry="99" transform="rotate(180 228.5 169)" fill="#EDE5BB"/>
<path d="M149.8 169.8C149.8 177.2 154.76 181 160.04 181C165.32 181 170.28 177.2 170.28 169.8C170.28 162.4 165.32 158.64 160.04 158.64C154.76 158.64 149.8 162.4 149.8 169.8ZM145.8 169.8C145.8 160.32 152.92 155.04 160.04 155.04C167.16 155.04 174.28 160.32 174.28 169.8C174.28 179.28 167.16 184.6 160.04 184.6C152.92 184.6 145.8 179.28 145.8 169.8ZM191.07 181.68C190.03 183.68 187.63 184.6 185.39 184.6C180.91 184.6 178.19 181.24 178.19 176.88V164.76H181.95V176.32C181.95 178.96 183.15 181.28 186.31 181.28C189.35 181.28 190.87 179.28 190.87 176.36V164.76H194.63V180.44C194.63 181.96 194.75 183.32 194.83 184H191.23C191.15 183.56 191.07 182.48 191.07 181.68ZM210.847 164.56V168.56C210.287 168.48 209.727 168.44 209.207 168.44C206.047 168.44 203.927 170.12 203.927 174.36V184H200.167V164.76H203.847V168.12C205.247 165.16 207.647 164.44 209.607 164.44C210.127 164.44 210.647 164.52 210.847 164.56ZM241.574 162.08L238.054 163.32C237.734 161.28 236.014 158.48 232.054 158.48C228.854 158.48 226.574 160.56 226.574 163.2C226.574 165.24 227.814 166.8 230.214 167.32L234.454 168.24C239.174 169.28 241.814 172.24 241.814 176.2C241.814 180.6 238.054 184.6 232.014 184.6C225.174 184.6 221.934 180.2 221.414 176.16L225.174 174.96C225.454 178.12 227.694 181.04 231.974 181.04C235.894 181.04 237.814 179 237.814 176.52C237.814 174.48 236.414 172.72 233.574 172.12L229.534 171.24C225.494 170.36 222.614 167.72 222.614 163.48C222.614 159.04 226.734 155.04 231.974 155.04C238.374 155.04 240.934 159 241.574 162.08ZM250.574 158.68V164.76H254.734V168.16H250.574V178.16C250.574 179.92 251.294 180.8 253.254 180.8C253.734 180.8 254.414 180.72 254.734 180.64V183.84C254.414 183.96 253.454 184.2 252.174 184.2C248.894 184.2 246.814 182.2 246.814 178.72V168.16H243.134V164.76H244.174C246.254 164.76 247.134 163.48 247.134 161.8V158.68H250.574ZM266.918 181.24C270.118 181.24 272.918 178.84 272.918 174.36C272.918 169.92 270.118 167.52 266.918 167.52C263.718 167.52 260.918 169.92 260.918 174.36C260.918 178.84 263.718 181.24 266.918 181.24ZM266.918 164.16C272.678 164.16 276.758 168.52 276.758 174.36C276.758 180.24 272.678 184.6 266.918 184.6C261.158 184.6 257.078 180.24 257.078 174.36C257.078 168.52 261.158 164.16 266.918 164.16ZM291.368 164.56V168.56C290.808 168.48 290.248 168.44 289.728 168.44C286.568 168.44 284.448 170.12 284.448 174.36V184H280.688V164.76H284.368V168.12C285.768 165.16 288.168 164.44 290.128 164.44C290.648 164.44 291.168 164.52 291.368 164.56ZM299.882 192.04H295.762L300.562 181.88L292.282 164.76H296.602L302.602 178.04L308.362 164.76H312.402L299.882 192.04Z" fill="white"/>
</svg>
