<svg width="698" height="156" viewBox="0 0 698 156" fill="none" xmlns="http://www.w3.org/2000/svg">
<path d="M28.9953 27.4683L24.5043 25.4388C25.2839 24.1506 25.9027 21.6073 23.3356 19.3475C21.4245 17.6653 19.0898 17.7871 17.9097 19.1277C16.9305 20.2401 16.8653 21.752 18.0974 23.3429L20.4442 26.3705C23.4961 30.3225 23.3551 34.4509 20.8443 37.3033C18.1076 40.4124 12.7501 41.2652 8.04368 37.1224C2.68124 32.4021 3.35184 26.8668 5.57397 23.7097L10.0787 25.9537C8.49225 28.101 8.30811 31.1283 11.1605 33.6391C13.2712 35.4971 15.3697 35.4711 16.6251 34.0449C17.6545 32.8755 17.5737 31.1844 16.2811 29.4897L13.9594 26.4335C11.3137 22.9403 11.0644 19.0252 13.7509 15.9732C16.9145 12.3792 22.548 12.4781 26.3702 15.8426C31.2763 20.1611 30.5476 24.7847 28.9953 27.4683ZM20.518 40.5124C22.6673 37.9506 25.7563 38.1117 28.4366 39.765L32.3987 42.1963C33.3115 42.7637 33.9155 42.5759 34.3307 42.081C35.1855 41.0621 35.1078 39.5584 33.4775 38.1907C31.789 36.7742 29.9538 37.0697 28.7871 38.2239L25.9625 34.6141C28.076 32.5679 32.2189 31.8274 36.0617 35.0513C40.6031 38.8614 40.1423 42.8398 37.7244 45.7219L31.8139 52.7669C31.1789 53.5238 30.4115 54.616 30.0836 55.1842L26.532 52.2045C26.7621 51.7528 27.3633 50.9179 27.8274 50.3648C26.1471 50.8896 23.9484 50.7315 21.8233 48.9486C18.7665 46.3841 18.6374 42.7541 20.518 40.5124ZM25.0563 46.7503C26.6866 48.1181 28.8598 48.6021 30.9847 46.0693L31.522 45.4289L27.8754 43.2128C26.7635 42.5279 25.5134 42.4216 24.5853 43.5279C23.877 44.3721 23.8045 45.7001 25.0563 46.7503ZM33.3159 67.1998L29.1217 63.8657L38.6258 58.9936L42.5767 41.2605L47.0089 44.7839L44.0955 56.4485L54.505 50.7428L58.729 54.1005L33.3159 67.1998ZM71.0351 62.5313C70.1589 63.7265 68.445 64.0722 67.0045 63.0163C65.3802 61.8256 65.3042 59.7439 66.4948 58.1196C69.5052 54.0127 73.3358 54.7004 75.4014 55.9318L74.031 57.8014C72.7316 57.1316 70.7479 57.1381 69.6532 58.503C69.8739 58.5234 70.1333 58.6193 70.4092 58.8215C71.7883 59.8325 71.9786 61.2441 71.0351 62.5313ZM77.0727 66.957C76.1966 68.1522 74.4827 68.4978 73.0422 67.442C71.4179 66.2513 71.3419 64.1696 72.5325 62.5453C75.5429 58.4384 79.3735 59.1261 81.4391 60.3575L80.0687 62.227C78.7693 61.5572 76.7856 61.5638 75.6909 62.9287C75.9115 62.949 76.171 63.045 76.4468 63.2472C77.826 64.2581 78.0163 65.6697 77.0727 66.957ZM80.7216 79.1693L81.8403 60.9823L86.9121 64.4713L85.8382 76.6931L96.8679 71.32L101.721 74.6582L85.0421 82.1414L78.6241 91.4711L74.3037 88.499L80.7216 79.1693ZM94.531 88.2031L101.592 92.679C102.525 91.0656 102.474 88.874 100.035 87.3278C97.8204 85.924 95.5428 86.8198 94.531 88.2031ZM99.405 97.0516L102.296 100.369C99.7644 102.588 95.8165 103.28 91.933 100.819C87.6002 98.072 85.7544 92.5377 89.1317 87.21C92.3258 82.1711 98.124 81.2574 102.168 83.8209C107.046 86.9133 107.994 91.8779 104.779 96.9489C104.393 97.5587 103.921 98.1599 103.881 98.2241L92.5833 91.0627C91.3572 93.2099 92.1662 95.8373 94.2845 97.1801C96.2743 98.4415 97.9963 98.1383 99.405 97.0516ZM103.601 101.332L107.822 102.693C107.174 104.031 107.438 105.768 109.342 106.878C110.786 107.72 111.916 107.366 112.413 106.513C112.834 105.791 112.686 104.913 111.592 103.923L109.745 102.186C107.028 99.6789 106.707 96.9848 108.028 94.7195C109.712 91.8305 113.67 90.9267 117.149 92.9552C121.746 95.6344 121.585 99.4557 120.768 101.31L116.646 100.007C117.069 98.9784 117.088 97.3618 115.249 96.2901C114.1 95.6203 112.779 95.7739 112.243 96.6931C111.784 97.481 112.088 98.318 112.879 98.9988L114.89 100.831C117.691 103.344 118.171 106.218 116.793 108.582C115.262 111.208 111.657 112.714 107.422 110.245C102.564 107.413 102.727 103.285 103.601 101.332ZM126.79 92.5576C127.49 91.2512 129.205 90.7042 130.78 91.5474C132.555 92.4982 132.905 94.5821 131.954 96.3576C129.55 100.846 125.589 100.837 123.371 99.9081L124.465 97.8647C125.846 98.3454 127.845 97.9934 128.737 96.4884C128.516 96.4992 128.245 96.4406 127.944 96.2791C126.437 95.4718 126.037 93.9646 126.79 92.5576ZM133.356 96.0739C134.056 94.7674 135.771 94.2205 137.346 95.0637C139.121 96.0145 139.471 98.0984 138.52 99.8738C136.116 104.363 132.155 104.354 129.937 103.424L131.031 101.381C132.412 101.862 134.411 101.51 135.303 100.005C135.082 100.015 134.811 99.9568 134.51 99.7954C133.002 98.9881 132.603 97.4808 133.356 96.0739ZM165.884 137.572L161.128 135.549L168.519 118.17L153.994 132.515L149.973 130.805L150.171 110.532L142.839 127.771L138.223 125.808L148.767 101.015L155.132 103.722L154.966 124.794L169.854 109.983L176.428 112.779L165.884 137.572ZM179.633 138.003C181.982 138.767 184.702 137.774 185.796 134.414C186.889 131.053 185.273 128.649 182.924 127.885C180.575 127.121 177.855 128.114 176.761 131.475C175.68 134.8 177.284 137.239 179.633 138.003ZM184.346 123.513C189.658 125.241 192.388 130.484 190.602 135.977C188.827 141.433 183.523 144.104 178.211 142.376C172.899 140.648 170.18 135.368 171.955 129.912C173.742 124.419 179.034 121.785 184.346 123.513ZM206.508 130.387L205.226 135.315C204.703 135.061 204.235 134.9 203.794 134.785C201.293 134.135 198.807 134.784 197.793 138.682L195.641 146.957L190.75 145.685L195.456 127.591L200.2 128.825L199.502 131.51C201.227 129.406 203.843 129.615 205.387 130.017C205.792 130.122 206.15 130.254 206.508 130.387ZM210.078 138.465L218.285 140.06C218.565 138.218 217.72 136.196 214.885 135.645C212.311 135.144 210.516 136.809 210.078 138.465ZM217.841 144.929L221.743 146.965C220.194 149.954 216.77 152.037 212.256 151.16C207.22 150.181 203.485 145.7 204.688 139.508C205.826 133.652 210.893 130.688 215.593 131.602C221.263 132.704 223.954 136.982 222.809 142.875C222.671 143.584 222.451 144.316 222.437 144.39L209.306 141.838C208.947 144.285 210.658 146.436 213.12 146.915C215.433 147.364 216.926 146.455 217.841 144.929ZM237.582 140.442C237.226 146.512 241.306 149.643 245.441 149.885C249.614 150.13 254.032 147.495 254.387 141.426C254.742 135.356 250.662 132.224 246.489 131.98C242.354 131.738 237.937 134.372 237.582 140.442ZM232.155 140.162C232.663 131.475 239.501 126.508 246.785 126.935C254.106 127.363 260.318 133.094 259.809 141.781C259.303 150.43 252.465 155.397 245.144 154.969C237.86 154.542 231.648 148.812 232.155 140.162ZM270.658 131.589C269.518 131.625 268.053 132.166 268.119 134.255L268.184 136.305L272.4 136.171L272.538 140.501L268.322 140.635L268.778 154.992L263.689 155.154L263.233 140.797L260.118 140.896L259.98 136.566L263.095 136.467L263.027 134.34C262.893 130.125 265.465 127.305 269.605 127.174C270.668 127.14 271.7 127.297 272.124 127.474L272.259 131.728C271.991 131.66 271.493 131.562 270.658 131.589ZM280.44 129.9L280.904 135.466L284.653 135.154L285.026 139.622L281.277 139.935L281.928 147.736C282.064 149.364 282.865 149.831 284.304 149.711C284.91 149.66 285.585 149.528 285.844 149.43L286.192 153.595C285.753 153.823 284.866 154.164 283.39 154.287C279.754 154.59 277.302 152.621 277.002 149.024L276.278 140.352L272.908 140.633L272.535 136.165L273.482 136.086C275.451 135.921 276.252 134.558 276.113 132.892L275.895 130.279L280.44 129.9ZM291.39 141.442L299.658 140.203C299.307 138.372 297.834 136.749 294.977 137.177C292.384 137.566 291.249 139.734 291.39 141.442ZM300.867 144.94L305.224 145.555C304.764 148.89 302.232 151.997 297.685 152.679C292.612 153.439 287.593 150.464 286.658 144.226C285.774 138.326 289.559 133.839 294.294 133.129C300.006 132.273 303.972 135.406 304.862 141.344C304.969 142.058 305.007 142.821 305.018 142.896L291.79 144.878C292.269 147.304 294.6 148.761 297.081 148.389C299.411 148.04 300.514 146.683 300.867 144.94ZM311.909 138.55L314.279 149.04L309.35 150.154L305.229 131.918L310.011 130.837L310.521 133.098C311.206 130.957 313.201 129.61 315.165 129.166C319.687 128.144 322.491 130.9 323.396 134.903L325.992 146.393L321.062 147.507L318.659 136.87C318.198 134.831 316.837 133.463 314.465 133.999C312.315 134.485 311.432 136.438 311.909 138.55ZM329.018 142.311C328.503 140.482 329.579 138.56 331.408 138.044C333.273 137.518 335.196 138.595 335.711 140.423C336.227 142.252 335.15 144.174 333.285 144.7C331.456 145.216 329.534 144.139 329.018 142.311ZM359.316 114.028L355.365 116.972C354.616 115.666 352.691 113.892 349.47 115.043C347.072 115.899 346.047 118 346.648 119.682C347.147 121.078 348.437 121.867 350.426 121.561L354.212 120.975C359.148 120.221 362.691 122.346 363.969 125.924C365.362 129.825 363.511 134.924 357.606 137.033C350.879 139.436 346.362 136.167 344.677 132.693L348.823 129.84C349.933 132.269 352.491 133.897 356.07 132.619C358.718 131.673 359.713 129.825 359.074 128.036C358.55 126.568 357.031 125.819 354.922 126.129L351.124 126.678C346.786 127.299 343.241 125.62 341.873 121.791C340.263 117.282 343.08 112.402 347.875 110.689C354.03 108.491 357.721 111.369 359.316 114.028ZM366.5 127.775C365.233 124.68 366.814 122.022 369.525 120.42L373.522 118.045C374.449 117.502 374.564 116.88 374.319 116.282C373.816 115.051 372.449 114.419 370.479 115.225C368.439 116.06 367.847 117.822 368.325 119.392L363.815 120.211C362.988 117.387 364.262 113.376 368.904 111.477C374.391 109.232 377.697 111.492 379.122 114.974L382.604 123.485C382.979 124.399 383.588 125.587 383.938 126.142L379.647 127.897C379.355 127.483 378.896 126.562 378.622 125.894C378.304 127.626 377.141 129.498 374.573 130.548C370.88 132.059 367.608 130.483 366.5 127.775ZM374.133 126.664C376.103 125.858 377.543 124.16 376.291 121.1L375.974 120.326L372.315 122.522C371.191 123.187 370.515 124.243 371.062 125.58C371.479 126.6 372.621 127.282 374.133 126.664ZM396.099 128.787L391.212 130.985L391.242 120.305L377.297 108.66L382.461 106.338L391.49 114.277L391.194 102.41L396.115 100.197L396.099 128.787ZM409.367 93.1264C410.02 94.4568 409.532 96.1357 407.929 96.9226C406.121 97.8101 404.241 96.9125 403.353 95.1046C401.11 90.5335 403.495 87.4581 405.543 86.1985L406.565 88.2794C405.369 89.1203 404.455 90.881 405.157 92.4837C405.277 92.2976 405.483 92.1122 405.79 91.9615C407.325 91.208 408.664 91.6937 409.367 93.1264ZM416.087 89.8279C416.74 91.1583 416.252 92.8371 414.649 93.6241C412.841 94.5115 410.961 93.614 410.073 91.806C407.83 87.235 410.215 84.1595 412.263 82.9L413.285 84.9808C412.089 85.8218 411.175 87.5825 411.877 89.1851C411.997 88.9991 412.203 88.8137 412.51 88.663C414.045 87.9095 415.384 88.3952 416.087 89.8279ZM428.898 92.3268L413.497 82.5879L418.998 79.8231L429.192 86.6501L429.794 74.396L435.057 71.7508L433.583 89.9716L438.669 100.089L433.984 102.444L428.898 92.3268ZM443.887 84.5827L451.335 80.7865C450.422 79.1621 448.51 78.0891 445.937 79.4005C443.601 80.5911 443.212 83.0074 443.887 84.5827ZM453.984 84.8959L458.312 84.0978C458.932 87.407 457.516 91.1567 453.419 93.2446C448.849 95.574 443.146 94.3433 440.282 88.7231C437.573 83.4076 439.74 77.9527 444.006 75.7785C449.152 73.1558 453.907 74.8696 456.633 80.219C456.961 80.8622 457.238 81.5739 457.273 81.6416L445.355 87.7154C446.579 89.8643 449.252 90.5065 451.486 89.3677C453.585 88.2979 454.202 86.6616 453.984 84.8959ZM460.002 83.4081L463.433 80.5983C464.206 81.8677 465.809 82.5879 467.773 81.5892C469.264 80.8315 469.579 79.6908 469.132 78.81C468.753 78.0648 467.935 77.7133 466.51 78.0967L464.05 78.7078C460.47 79.6323 458.032 78.4418 456.844 76.1045C455.328 73.1235 456.714 69.3075 460.304 67.4823C465.047 65.0716 468.171 67.2771 469.287 68.9692L465.958 71.7274C465.323 70.8139 463.974 69.9221 462.077 70.8864C460.892 71.4891 460.305 72.6826 460.787 73.6311C461.2 74.4441 462.068 74.6423 463.069 74.3467L465.698 73.6495C469.329 72.6567 472.004 73.8116 473.244 76.2506C474.622 78.9605 473.934 82.8059 469.564 85.0272C464.55 87.5756 461.17 85.2018 460.002 83.4081ZM466.2 58.7024C465.54 57.3752 466.088 55.6602 467.688 54.8653C469.491 53.969 471.392 54.8913 472.289 56.6949C474.555 61.2549 472.253 64.4781 470.21 65.7477L469.179 63.6719C470.37 62.8251 471.241 60.9919 470.532 59.3927C470.412 59.5793 470.208 59.7658 469.902 59.918C468.37 60.679 466.91 60.1316 466.2 58.7024ZM472.87 55.3878C472.21 54.0606 472.758 52.3455 474.357 51.5507C476.161 50.6544 478.062 51.5767 478.958 53.3803C481.224 57.9402 478.922 61.1635 476.88 62.4331L475.848 60.3573C477.04 59.5105 477.911 57.6773 477.201 56.0781C477.082 56.2647 476.878 56.4512 476.571 56.6034C475.04 57.3644 473.58 56.817 472.87 55.3878ZM527.618 56.8358L522.912 58.973L515.102 41.7776L515.854 62.1788L511.875 63.986L497.07 50.1348L504.817 67.1918L500.25 69.2661L489.108 44.7359L495.405 41.8758L510.821 56.2429L509.971 35.2599L516.476 32.3055L527.618 56.8358ZM538.364 48.0932C540.658 47.1758 542.111 44.6707 540.799 41.3895C539.486 38.1083 536.706 37.2969 534.413 38.2143C532.119 39.1317 530.666 41.6368 531.978 44.918C533.277 48.1639 536.071 49.0106 538.364 48.0932ZM532.705 33.9452C537.891 31.8705 543.346 34.1495 545.491 39.5123C547.622 44.8399 545.259 50.2875 540.072 52.3623C534.886 54.437 529.417 52.1227 527.286 46.7951C525.14 41.4323 527.518 36.02 532.705 33.9452ZM556.311 25.5922L558.031 30.3848C557.456 30.4701 556.979 30.6012 556.549 30.7552C554.117 31.6282 552.431 33.5659 553.792 37.3571L556.68 45.4044L551.923 47.1118L545.607 29.5151L550.221 27.859L551.158 30.4699C551.397 27.76 553.675 26.4578 555.177 25.9186C555.57 25.7774 555.941 25.6848 556.311 25.5922ZM565.168 30.4586L573.147 27.9651C572.519 26.2105 570.815 24.8322 568.058 25.6936C565.556 26.4757 564.767 28.7924 565.168 30.4586ZM575.07 32.4604L579.47 32.3992C579.526 35.7656 577.502 39.2248 573.113 40.5962C568.217 42.1263 562.801 39.9568 560.92 33.9359C559.14 28.2415 562.192 23.2272 566.762 21.7991C572.275 20.0763 576.675 22.5632 578.465 28.2939C578.681 28.983 578.835 29.7311 578.858 29.8036L566.09 33.7932C566.936 36.1168 569.464 37.1981 571.857 36.4501C574.106 35.7474 574.988 34.2376 575.07 32.4604ZM594.024 20.4519C595.262 26.4045 600.017 28.3654 604.072 27.522C608.165 26.6709 611.744 22.9768 610.506 17.0242C609.268 11.0716 604.513 9.11067 600.42 9.96179C596.365 10.8052 592.786 14.4992 594.024 20.4519ZM588.712 21.5955C586.94 13.0758 592.248 6.49924 599.391 5.01366C606.572 3.52035 614.062 7.43527 615.834 15.955C617.598 24.4375 612.29 31.0141 605.109 32.5074C597.966 33.9929 590.476 30.078 588.712 21.5955ZM627.691 4.26421C626.561 4.418 625.159 5.1074 625.441 7.17829L625.718 9.21154L629.898 8.64255L630.482 12.9349L626.302 13.5039L628.24 27.7367L623.195 28.4235L621.257 14.1908L618.17 14.6112L617.585 10.3188L620.673 9.89843L620.386 7.78988C619.817 3.61043 622.083 0.540618 626.187 -0.0181222C627.242 -0.161652 628.284 -0.111792 628.724 0.0200842L629.298 4.23718C629.024 4.19776 628.519 4.15144 627.691 4.26421ZM639.715 2.11108L640.212 7.67493L643.959 7.34023L644.358 11.8064L640.611 12.1411L641.307 19.9381C641.453 21.5656 642.257 22.0279 643.695 21.8994C644.301 21.8453 644.975 21.7088 645.233 21.6094L645.605 25.7728C645.168 26.0027 644.283 26.3487 642.807 26.4806C639.174 26.8052 636.71 24.8506 636.389 21.2549L635.615 12.5874L632.246 12.8883L631.847 8.42209L632.793 8.33757C634.762 8.16177 635.555 6.79375 635.406 5.12838L635.173 2.51678L639.715 2.11108ZM652.218 14.2431L660.574 13.9844C660.441 12.1257 659.169 10.3402 656.282 10.4295C653.661 10.5107 652.279 12.5304 652.218 14.2431ZM661.218 18.8308L665.473 19.9537C664.624 23.2116 661.744 26 657.149 26.1423C652.021 26.301 647.387 22.7567 647.192 16.4517C647.007 10.4886 651.293 6.47802 656.079 6.32986C661.852 6.15113 665.423 9.72837 665.609 15.7295C665.631 16.4511 665.578 17.2131 665.581 17.2891L652.211 17.703C652.402 20.1683 654.546 21.8888 657.053 21.8112C659.407 21.7383 660.662 20.5208 661.218 18.8308ZM674.538 14.8645L674.091 25.6092L669.041 25.3993L669.818 6.71944L674.716 6.92304L674.62 9.23904C675.839 7.35006 678.115 6.56994 680.128 6.65359C684.76 6.84614 686.748 10.2377 686.578 14.3381L686.089 26.108L681.039 25.898L681.492 15.0015C681.579 12.9133 680.622 11.2381 678.192 11.137C675.99 11.0455 674.628 12.7004 674.538 14.8645ZM690.412 23.2369C690.599 21.3461 692.303 19.949 694.193 20.1361C696.122 20.3268 697.519 22.0306 697.332 23.9214C697.145 25.8121 695.441 27.2092 693.513 27.0185C691.622 26.8314 690.225 25.1277 690.412 23.2369Z" fill="#95261F"/>
</svg>
