<svg width="701" height="159" viewBox="0 0 701 159" fill="none" xmlns="http://www.w3.org/2000/svg">
<path d="M15.9279 46.2893L-3.85422e-05 32.2925L3.3612 28.4675L25.0314 25.0496L14.8695 16.1198L18.1555 12.3804L33.5696 25.9257L30.3338 29.608L8.39199 32.9895L19.239 42.5214L15.9279 46.2893ZM28.5494 41.8935L34.9666 47.2517C36.1016 45.7737 36.3373 43.5943 34.1205 41.7432C32.1078 40.0627 29.7329 40.654 28.5494 41.8935ZM32.2283 51.3019L34.6623 54.9679C31.8628 56.8384 27.8585 57.0097 24.329 54.0627C20.3912 50.7747 19.2826 45.047 23.3256 40.205C27.1494 35.6255 33.0172 35.4755 36.6925 38.5443C41.1261 42.2463 41.418 47.292 37.5699 51.9007C37.1071 52.4549 36.5617 52.9896 36.513 53.0479L26.2456 44.4748C24.75 46.4439 25.2096 49.1543 27.1347 50.7618C28.9432 52.2718 30.6899 52.1957 32.2283 51.3019ZM59.7044 57.7822L48.9538 59.3112L48.2302 72.5439L43.3709 68.703L43.9254 60.0351L40.919 60.4681L37.8557 64.3437L33.8908 61.2097L50.951 39.6259L54.916 42.7599L45.137 55.1318L54.5172 53.6821L59.7044 57.7822ZM69.2984 79.4127L86.7026 67.2655L91.2056 70.5064L67.3556 86.5354L62.976 83.3833L70.6339 55.7002L75.291 59.0522L69.2984 79.4127ZM77.3289 87.3723C79.1792 84.5868 82.2669 84.4025 85.1148 85.7468L89.3232 87.7212C90.2936 88.1833 90.8729 87.9294 91.2303 87.3913C91.9662 86.2835 91.7213 84.7978 89.9488 83.6204C88.1129 82.4009 86.3221 82.8992 85.2913 84.1762L82.0819 80.9038C83.9542 78.6347 87.9887 77.4371 92.1669 80.2125C97.1048 83.4926 97.0903 87.4975 95.0088 90.6312L89.9205 98.2912C89.3738 99.1141 88.7328 100.285 88.4703 100.886L84.6087 98.3211C84.7871 97.8465 85.2915 96.9498 85.691 96.3484C84.0796 97.0572 81.877 97.1452 79.5664 95.6103C76.2428 93.4026 75.7099 89.8095 77.3289 87.3723ZM82.5342 93.0654C84.3068 94.2429 86.5205 94.4816 88.3497 91.7278L88.8123 91.0314L84.9414 89.2356C83.7601 88.679 82.5059 88.7127 81.7069 89.9155C81.0972 90.8334 81.1732 92.1613 82.5342 93.0654ZM117.096 96.525L106.607 99.3347L107.479 112.558L102.193 109.329L101.702 100.658L98.7698 101.449L96.1943 105.664L91.8815 103.029L106.225 79.5521L110.537 82.1869L102.316 95.6442L111.454 93.0779L117.096 96.525ZM117.393 104.858L124.707 108.907C125.542 107.241 125.361 105.056 122.835 103.657C120.541 102.388 118.32 103.417 117.393 104.858ZM122.784 113.401L125.867 116.541C123.472 118.907 119.572 119.832 115.549 117.606C111.061 115.122 108.889 109.707 111.944 104.188C114.833 98.9679 120.566 97.7113 124.756 100.03C129.809 102.827 131.05 107.726 128.142 112.98C127.793 113.611 127.358 114.239 127.321 114.306L115.618 107.829C114.522 110.045 115.486 112.62 117.68 113.834C119.741 114.975 121.442 114.57 122.784 113.401ZM144.907 111.106L142.626 115.658C142.168 115.301 141.743 115.046 141.335 114.842C139.025 113.684 136.459 113.801 134.654 117.402L130.824 125.046L126.305 122.781L134.681 106.067L139.064 108.263L137.821 110.743C139.947 109.045 142.461 109.795 143.888 110.51C144.262 110.698 144.585 110.902 144.907 111.106ZM158.761 116.714C158.174 118.075 156.581 118.795 154.941 118.088C153.092 117.29 152.552 115.278 153.349 113.429C155.365 108.753 159.253 108.567 161.541 109.305L160.624 111.434C159.207 111.071 157.275 111.521 156.514 113.096C156.733 113.067 157.008 113.102 157.322 113.238C158.892 113.915 159.393 115.248 158.761 116.714ZM165.635 119.678C165.049 121.038 163.455 121.759 161.815 121.051C159.966 120.254 159.426 118.242 160.224 116.393C162.24 111.717 166.127 111.531 168.416 112.269L167.498 114.398C166.082 114.035 164.15 114.485 163.388 116.06C163.607 116.031 163.882 116.066 164.196 116.202C165.766 116.879 166.267 118.212 165.635 119.678ZM158.785 128.778L159.411 127.105L164.464 128.023L163.599 130.336C162.662 132.947 163.681 134.668 165.674 135.414C167.738 136.186 169.566 135.207 170.392 133L176.919 115.562L181.83 117.4L175.303 134.839C173.598 139.394 168.876 141.928 163.965 140.089C158.982 138.224 156.934 133.725 158.785 128.778ZM177.085 138.86C178.057 135.66 180.961 134.596 184.075 135.064L188.673 135.745C189.736 135.909 190.218 135.499 190.405 134.881C190.791 133.608 190.13 132.255 188.093 131.638C185.984 130.997 184.412 131.99 183.792 133.509L179.778 131.298C180.918 128.586 184.438 126.279 189.238 127.736C194.91 129.457 196.048 133.297 194.956 136.897L192.285 145.697C191.998 146.642 191.721 147.948 191.643 148.599L187.206 147.253C187.241 146.747 187.466 145.743 187.676 145.052C186.336 146.195 184.252 146.912 181.597 146.107C177.779 144.948 176.236 141.66 177.085 138.86ZM183.708 142.816C185.744 143.434 187.933 143.026 188.893 139.862L189.136 139.062L184.912 138.456C183.621 138.262 182.429 138.655 182.01 140.037C181.69 141.091 182.145 142.341 183.708 142.816ZM199.161 125.311C199.506 123.87 201.027 122.906 202.764 123.323C204.722 123.793 205.589 125.72 205.119 127.678C203.931 132.63 200.097 133.625 197.716 133.288L198.256 131.034C199.714 131.149 201.558 130.302 202.04 128.62C201.829 128.687 201.552 128.699 201.22 128.619C199.557 128.22 198.788 126.863 199.161 125.311ZM206.403 127.049C206.749 125.608 208.27 124.644 210.006 125.06C211.965 125.53 212.831 127.458 212.361 129.416C211.173 134.368 207.339 135.363 204.958 135.026L205.499 132.772C206.956 132.887 208.801 132.04 209.283 130.358C209.071 130.424 208.795 130.436 208.462 130.356C206.799 129.957 206.031 128.601 206.403 127.049ZM209.172 149.445C209.529 147.579 211.352 146.341 213.218 146.697C215.121 147.061 216.359 148.884 216.002 150.75C215.646 152.617 213.823 153.854 211.919 153.491C210.053 153.134 208.815 151.311 209.172 149.445ZM256.554 157.68L235.38 156.55L235.652 151.465L250.553 135.364L237.044 134.643L237.31 129.672L257.801 130.766L257.539 135.661L242.402 151.901L256.821 152.671L256.554 157.68ZM263.017 146.017L271.372 145.729C271.232 143.871 269.954 142.09 267.068 142.189C264.447 142.28 263.072 144.304 263.017 146.017ZM272.033 150.574L276.292 151.682C275.453 154.943 272.584 157.741 267.989 157.899C262.862 158.075 258.216 154.547 257.999 148.243C257.794 142.28 262.066 138.255 266.851 138.09C272.623 137.892 276.206 141.457 276.413 147.457C276.437 148.179 276.388 148.941 276.39 149.017L263.022 149.477C263.221 151.941 265.371 153.654 267.878 153.568C270.232 153.487 271.483 152.265 272.033 150.574ZM295.733 136.06L289.195 144.729L298.02 154.616L291.866 155.324L286.143 148.791L284.318 151.219L284.882 156.127L279.862 156.704L276.718 129.372L281.739 128.795L283.541 144.462L289.164 136.815L295.733 136.06ZM317.143 143.574L319.542 122.486L324.951 121.252L321.201 149.742L315.94 150.943L300.24 126.891L305.834 125.614L317.143 143.574ZM328.255 142.813C327.289 139.611 329.117 137.115 331.968 135.779L336.173 133.797C337.148 133.344 337.322 132.736 337.135 132.118C336.751 130.844 335.451 130.086 333.414 130.7C331.303 131.336 330.545 133.033 330.871 134.642L326.304 135.026C325.75 132.137 327.401 128.266 332.204 126.818C337.879 125.107 340.955 127.672 342.041 131.274L344.695 140.078C344.98 141.024 345.473 142.265 345.769 142.85L341.33 144.189C341.079 143.749 340.71 142.788 340.501 142.097C340.02 143.79 338.683 145.543 336.027 146.343C332.207 147.495 329.099 145.614 328.255 142.813ZM335.959 142.435C337.997 141.82 339.593 140.267 338.638 137.102L338.397 136.302L334.545 138.138C333.363 138.693 332.589 139.68 333.006 141.063C333.324 142.118 334.395 142.906 335.959 142.435ZM360.35 117.849L355.952 127.777L366.791 135.401L360.959 137.487L353.902 132.425L352.676 135.204L354.34 139.856L349.582 141.558L340.314 115.654L345.073 113.951L350.385 128.8L354.125 120.076L360.35 117.849ZM367.008 122.849L374.748 119.69C373.975 117.995 372.159 116.766 369.486 117.857C367.058 118.848 366.468 121.223 367.008 122.849ZM377.044 124.007L381.423 123.574C381.764 126.924 380.039 130.542 375.782 132.279C371.032 134.217 365.453 132.513 363.069 126.673C360.815 121.149 363.431 115.895 367.864 114.086C373.212 111.903 377.807 114.01 380.075 119.568C380.348 120.237 380.565 120.969 380.594 121.04L368.209 126.094C369.248 128.338 371.858 129.202 374.18 128.254C376.362 127.364 377.113 125.785 377.044 124.007ZM389.368 105.388L391.435 110.042C390.868 110.169 390.401 110.335 389.985 110.52C387.623 111.569 386.083 113.625 387.718 117.306L391.189 125.12L386.57 127.172L378.981 110.085L383.461 108.095L384.587 110.631C384.626 107.91 386.802 106.445 388.261 105.797C388.643 105.627 389.006 105.508 389.368 105.388ZM403.151 98.3026C403.791 99.6394 403.286 101.313 401.675 102.084C399.859 102.954 397.988 102.038 397.118 100.221C394.92 95.6278 397.336 92.5761 399.397 91.337L400.397 93.4279C399.193 94.2569 398.262 96.0085 398.948 97.618C399.07 97.4332 399.277 97.2498 399.586 97.1022C401.128 96.364 402.462 96.863 403.151 98.3026ZM409.904 95.071C410.544 96.4078 410.039 98.0818 408.428 98.8528C406.611 99.7222 404.74 98.806 403.871 96.9893C401.673 92.3962 404.088 89.3446 406.149 88.1055L407.15 90.1964C405.946 91.0254 405.015 92.7769 405.701 94.3865C405.823 94.2016 406.03 94.0182 406.338 93.8706C407.881 93.1324 409.215 93.6314 409.904 95.071ZM412.518 106.109L411.724 104.51L415.844 101.444L416.943 103.656C418.211 106.123 420.165 106.553 422.07 105.606C424.044 104.625 424.576 102.621 423.527 100.511L415.24 83.8366L419.936 81.5027L428.223 98.1769C430.388 102.533 429.016 107.712 424.32 110.046C419.556 112.414 414.869 110.839 412.518 106.109ZM432.669 99.5597C431.156 96.5778 432.515 93.7995 435.088 91.9826L438.878 89.2917C439.758 88.6746 439.822 88.0454 439.53 87.4694C438.928 86.2834 437.514 85.7651 435.617 86.7282C433.651 87.7257 433.203 89.5298 433.807 91.0557L429.379 92.2379C428.326 89.4912 429.27 85.3899 433.743 83.1196C439.029 80.4367 442.508 82.4211 444.21 85.7757L448.372 93.9759C448.819 94.857 449.523 95.9914 449.917 96.5158L445.783 98.614C445.458 98.2251 444.926 97.3446 444.599 96.7008C444.422 98.4523 443.415 100.413 440.941 101.668C437.383 103.474 433.993 102.169 432.669 99.5597ZM440.187 97.832C442.085 96.8689 443.382 95.0597 441.886 92.1116L441.508 91.3662L438.039 93.8512C436.973 94.6054 436.385 95.7136 437.038 97.0012C437.537 97.9839 438.73 98.5715 440.187 97.832ZM440.508 73.8883C439.836 72.5677 440.367 70.8473 441.959 70.037C443.753 69.1232 445.663 70.027 446.577 71.8217C448.888 76.3594 446.617 79.6049 444.587 80.8943L443.535 78.8287C444.719 77.9703 445.572 76.1287 444.847 74.5365C444.729 74.7243 444.526 74.9127 444.222 75.0679C442.698 75.8437 441.232 75.3106 440.508 73.8883ZM447.145 70.509C446.473 69.1883 447.004 67.468 448.596 66.6576C450.391 65.7438 452.301 66.6476 453.214 68.4424C455.525 72.98 453.254 76.2256 451.224 77.515L450.173 75.4493C451.356 74.591 452.209 72.7493 451.484 71.1571C451.366 71.3449 451.164 71.5333 450.859 71.6885C449.335 72.4644 447.87 71.9312 447.145 70.509ZM463.978 85.7771C463.117 84.0834 463.8 81.9886 465.494 81.1276C467.222 80.2494 469.316 80.9323 470.177 82.626C471.038 84.3198 470.356 86.4146 468.628 87.2928C466.934 88.1538 464.839 87.4709 463.978 85.7771ZM501.062 70.9686L482.005 80.2662L479.773 75.6898L484.976 54.3779L472.818 60.3097L470.636 55.8358L489.078 46.8381L491.227 51.2437L485.885 72.7922L498.863 66.4605L501.062 70.9686ZM502.516 57.6621L510.114 54.1755C509.269 52.5149 507.403 51.3642 504.778 52.5687C502.395 53.6622 501.906 56.0604 502.516 57.6621ZM512.592 58.3903L516.948 57.7708C517.432 61.1027 515.863 64.7911 511.684 66.7087C507.022 68.8482 501.375 67.384 498.744 61.6508C496.256 56.2285 498.645 50.8672 502.997 48.8704C508.247 46.4614 512.927 48.3693 515.431 53.8263C515.732 54.4825 515.98 55.2049 516.012 55.274L503.855 60.8526C504.988 63.05 507.633 63.8016 509.912 62.7556C512.054 61.773 512.737 60.1635 512.592 58.3903ZM531.742 37.0205L527.905 47.1788L539.154 54.1851L533.447 56.5944L526.118 51.9344L525.05 54.7778L526.971 59.3288L522.315 61.2946L511.614 35.9491L516.27 33.9832L522.404 48.5114L525.65 39.5923L531.742 37.0205ZM556.685 40.4076L556.672 19.1835L561.906 17.3428L561.417 46.0746L556.326 47.8648L537.996 25.752L543.409 23.8483L556.685 40.4076ZM568.278 38.356C567.333 35.1484 569.176 32.6641 572.036 31.3459L576.253 29.39C577.231 28.9434 577.409 28.3364 577.226 27.7168C576.85 26.441 575.554 25.674 573.513 26.2755C571.399 26.8986 570.63 28.591 570.946 30.2013L566.376 30.5576C565.841 27.665 567.516 23.804 572.327 22.3861C578.013 20.7104 581.073 23.295 582.136 26.9036L584.736 35.7245C585.015 36.6722 585.5 37.9157 585.792 38.5032L581.345 39.8137C581.096 39.372 580.734 38.4094 580.529 37.7168C580.037 39.4069 578.689 41.1511 576.028 41.9352C572.201 43.0631 569.106 41.1626 568.278 38.356ZM575.985 38.0259C578.027 37.4244 579.632 35.8816 578.698 32.7105L578.461 31.9086L574.598 33.7205C573.412 34.268 572.632 35.2506 573.04 36.6357C573.352 37.6928 574.418 38.4878 575.985 38.0259ZM603.088 15.1816L597.59 24.5453L607.493 33.3521L601.461 34.7622L595.024 28.9304L593.491 31.5523L594.616 36.3626L589.694 37.5132L583.431 10.7236L588.352 9.57306L591.943 24.929L596.65 16.6869L603.088 15.1816ZM610.481 21.3045L618.725 19.9182C618.342 18.0946 616.84 16.4975 613.992 16.9764C611.406 17.4112 610.31 19.5993 610.481 21.3045ZM620.019 24.6329L624.387 25.1701C623.986 28.5129 621.51 31.665 616.976 32.4275C611.917 33.2783 606.846 30.3932 605.8 24.1725C604.811 18.2891 608.515 13.7358 613.237 12.9418C618.933 11.984 622.954 15.0455 623.95 20.9664C624.069 21.6784 624.12 22.4404 624.133 22.5154L610.942 24.7335C611.464 27.1504 613.821 28.5651 616.295 28.1492C618.618 27.7585 619.697 26.3826 620.019 24.6329ZM637.923 10.1285L638.482 15.1897C637.903 15.139 637.408 15.1555 636.955 15.2057C634.386 15.4897 632.296 16.9826 632.739 20.9861L633.679 29.4843L628.655 30.0399L626.6 11.4572L631.472 10.9183L631.777 13.6755C632.639 11.0952 635.157 10.3579 636.743 10.1825C637.159 10.1365 637.541 10.1325 637.923 10.1285ZM655.297 8.6304C655.35 10.1115 654.218 11.4445 652.433 11.508C650.421 11.5795 649.071 9.99243 649 7.97971C648.819 2.89092 652.252 1.0578 654.636 0.744891L654.719 3.06143C653.284 3.34058 651.731 4.57454 651.717 6.32414C651.903 6.20346 652.166 6.11806 652.508 6.10591C654.216 6.04516 655.24 7.03541 655.297 8.6304ZM662.778 8.36445C662.831 9.84551 661.7 11.1785 659.915 11.242C657.902 11.3135 656.553 9.72648 656.481 7.71375C656.3 2.62497 659.733 0.791845 662.118 0.478939L662.2 2.79548C660.765 3.07463 659.212 4.30859 659.198 6.05819C659.384 5.93751 659.647 5.85211 659.989 5.83995C661.698 5.7792 662.722 6.76946 662.778 8.36445ZM661.354 19.5743L661.391 17.7887L666.463 16.9836L666.411 19.453C666.391 22.2272 667.922 23.5138 670.05 23.5587C672.253 23.6052 673.654 22.0764 673.703 19.721L674.096 1.1051L679.339 1.21576L678.946 19.8316C678.844 24.6945 675.225 28.6471 669.982 28.5364C664.664 28.4241 661.242 24.8551 661.354 19.5743ZM682.629 23.2605C682.931 19.9302 685.559 18.2992 688.704 18.1268L693.345 17.8614C694.418 17.8062 694.807 17.3074 694.865 16.664C694.986 15.3395 694.064 14.1492 691.944 13.9568C689.749 13.7574 688.411 15.0477 688.112 16.6613L683.732 15.3097C684.3 12.4232 687.279 9.45038 692.274 9.90397C698.178 10.44 700.07 13.9696 699.73 17.7162L698.899 26.8746C698.809 27.8585 698.802 29.1934 698.858 29.847L694.241 29.4278C694.172 28.9255 694.189 27.8968 694.254 27.1778C693.174 28.5678 691.278 29.693 688.516 29.4422C684.542 29.0814 682.364 26.1745 682.629 23.2605ZM689.916 25.7918C692.035 25.9842 694.096 25.1411 694.395 21.8487L694.47 21.0161L690.211 21.278C688.907 21.3504 687.82 21.9767 687.69 23.4148C687.59 24.5122 688.288 25.644 689.916 25.7918Z" fill="#95261F"/>
</svg>
